<?xml version="1.0" encoding="utf-8"?>
<!-- Generator: Adobe Illustrator 23.1.1, SVG Export Plug-In . SVG Version: 6.00 Build 0)  -->
<svg version="1.1" id="Layer_1" xmlns="http://www.w3.org/2000/svg" xmlns:xlink="http://www.w3.org/1999/xlink" x="0px" y="0px"
	 viewBox="0 0 200 200" style="enable-background:new 0 0 200 200;" xml:space="preserve">
<style type="text/css">
	.st0{fill:#FFFFFF;}
	.st1{fill:#2ADA7D;}
</style>
<g>
	<rect x="-17" y="-14" class="st0" width="230" height="226"/>
</g>
<g>
	<g>
		<path class="st1" d="M20.17,98.89c0-41.28,36.57-75.92,79.99-75.92c23.52,0,44.91,10.05,59.67,25.88l-30.58,26.73
			c-6.84-8.98-17.54-14.97-29.09-14.97c-20.1,0-37.21,17.54-37.21,38.28c0,20.96,17.11,38.5,37.21,38.5
			c11.76,0,22.24-5.99,29.3-14.97l30.37,26.52c-14.75,16.04-36.14,26.09-59.67,26.09C56.74,175.03,20.17,140.17,20.17,98.89z"/>
	</g>
</g>
</svg>
