<?xml version="1.0" encoding="UTF-8" standalone="no"?><!DOCTYPE svg PUBLIC "-//W3C//DTD SVG 1.1//EN" "http://www.w3.org/Graphics/SVG/1.1/DTD/svg11.dtd"><svg width="100%" height="100%" viewBox="0 0 200 200" version="1.1" xmlns="http://www.w3.org/2000/svg" xmlns:xlink="http://www.w3.org/1999/xlink" xml:space="preserve" xmlns:serif="http://www.serif.com/" style="fill-rule:evenodd;clip-rule:evenodd;stroke-linejoin:round;stroke-miterlimit:2;"><g><rect x="-17" y="-14" width="230" height="226" style="fill:#1eb8e5;"/></g><g><g><path d="M30.17,98.89c-0,-41.28 36.57,-75.92 79.99,-75.92c23.52,0 44.91,10.05 59.67,25.88l-30.58,26.73c-6.84,-8.98 -17.54,-14.97 -29.09,-14.97c-20.1,0 -37.21,17.54 -37.21,38.28c0,20.96 17.11,38.5 37.21,38.5c11.76,0 22.24,-5.99 29.3,-14.97l30.37,26.52c-14.75,16.04 -36.14,26.09 -59.67,26.09c-43.42,0 -79.99,-34.86 -79.99,-76.14Z" style="fill:#fff;fill-rule:nonzero;"/></g></g></svg>