<svg version="1" xmlns="http://www.w3.org/2000/svg" width="933.333" height="933.333" viewBox="0 0 700.000000 700.000000"><path d="M359.5 85c-54.1 5.5-104.1 25-146.9 57.2-15.3 11.6-34.9 30.4-48.1 46.3-21.5 25.8-41 63.1-49.9 95.7-6.7 24.6-8 35.1-8.1 64.8 0 29.4.9 37.8 7 61.5C139.6 512.7 229.6 593.4 338 611.9c34.7 5.9 71.2 5.3 106.1-2 50.9-10.5 99.7-36.3 138.2-72.9 6.4-6.1 11.7-11.5 11.7-11.9 0-.7-17.4-16-94-82.7l-11.6-10.2-8.6 9.3c-18.4 19.6-40.6 32.8-66.3 39.6-11.5 3-34.8 3.7-47.7 1.5-50.8-8.6-92.8-48.1-106.2-99.7-12.3-47.4 2.9-98.2 39.6-132.4 34-31.6 80.3-42.5 123.3-28.9 22.2 7 44.3 22 60.6 41.1l4.4 5.2 51.5-45c28.3-24.8 52.4-45.9 53.5-47 2-2 2-2-7.5-11.1-44.2-42.3-98-68.8-158.2-77.9-15.3-2.3-52.6-3.3-67.3-1.9z"/></svg>